<?xml version="1.0" encoding="utf-8"?>
<!-- Generator: Adobe Illustrator 23.0.2, SVG Export Plug-In . SVG Version: 6.00 Build 0)  -->
<svg version="1.1" xmlns="http://www.w3.org/2000/svg" xmlns:xlink="http://www.w3.org/1999/xlink" x="0px" y="0px"
	 viewBox="0 0 113.93 596.63" style="enable-background:new 0 0 113.93 596.63;" xml:space="preserve">
<style type="text/css">
	.st0{fill:#0078D4;}
	.st1{fill:#50E6FF;}
	.st2{fill:none;stroke:#757575;stroke-miterlimit:10;}
	.st3{fill:none;stroke:#0078D4;stroke-width:2.88;stroke-miterlimit:10;}
	.st4{fill:#0078D4;stroke:#EBEBEB;stroke-miterlimit:10;}
	.st5{fill:#FFFFFF;stroke:#EBEBEB;stroke-miterlimit:10;}
	.st6{fill:#E6E7E8;stroke:#939598;stroke-miterlimit:10;}
	.st7{fill:#FFFFFF;}
	.st8{fill:none;stroke:#FFFFFF;stroke-width:2.88;stroke-miterlimit:10;}
	.st9{fill-rule:evenodd;clip-rule:evenodd;fill:#0078D4;}
	.st10{clip-path:url(#SVGID_2_);fill:none;stroke:#212121;stroke-miterlimit:10;}
	.st11{clip-path:url(#SVGID_2_);fill:#BCBCBC;}
	.st12{clip-path:url(#SVGID_2_);fill:#5E5E5E;}
	.st13{clip-path:url(#SVGID_2_);fill:#0078D4;}
	.st14{clip-path:url(#SVGID_2_);fill:#50E6FF;}
	.st15{clip-path:url(#SVGID_2_);}
	.st16{fill:#6D6E71;}
	.st17{fill:#3C3C3C;}
	.st18{opacity:0.8;fill:#FFFFFF;}
	.st19{fill:#333132;}
	.st20{fill:none;stroke:#333132;stroke-miterlimit:10;}
	.st21{fill:#0078D4;stroke:#000000;stroke-miterlimit:10;}
	.st22{fill:#EBEBEB;}
	.st23{fill:none;stroke:#5E5E5E;stroke-miterlimit:10;}
	.st24{fill:none;stroke:#50E6FF;stroke-miterlimit:10;}
	.st25{clip-path:url(#SVGID_4_);}
	.st26{fill:none;stroke:#212121;stroke-miterlimit:10;}
	.st27{fill:#BCBCBC;}
	.st28{fill:#5E5E5E;}
	.st29{clip-path:url(#SVGID_6_);}
	.st30{clip-path:url(#SVGID_8_);}
	.st31{fill:#EF5125;}
	.st32{fill:#80BA42;}
	.st33{fill:#787878;}
	.st34{fill:#757575;}
	.st35{fill:#349FD9;}
	.st36{fill:#FCB713;}
</style>
<g id="Guidelines">
</g>
<g id="Guides">
</g>
<g id="Layer_8">
</g>
<g id="Download_Blade">
</g>
<g id="Middle_Section">
</g>
<g id="Blade_1">
</g>
<g id="Hero">
	<g>
		<g>
			<g>
				<rect x="82.62" y="578.76" class="st17" width="30.81" height="17.87"/>
			</g>
			<g>
				<g>
					<path class="st19" d="M30.31,549.3v15.87H1.5V549.3H30.31 M31.31,548.3H0.5v17.87h30.81V548.3L31.31,548.3z"/>
				</g>
				<rect x="82.62" y="517.84" class="st20" width="30.81" height="17.87"/>
				<rect x="41.56" y="548.3" class="st1" width="30.81" height="17.87"/>
			</g>
		</g>
		<g>
			<g>
				<rect x="0.5" y="456.92" class="st20" width="30.81" height="17.87"/>
				<rect x="41.56" y="456.92" class="st20" width="30.81" height="17.87"/>
				<rect x="41.56" y="487.38" class="st17" width="30.81" height="17.87"/>
			</g>
			<g>
				<rect x="82.62" y="426.45" class="st19" width="30.81" height="17.87"/>
			</g>
		</g>
		<g>
			<g>
				<rect x="0.5" y="365.53" class="st17" width="30.81" height="17.87"/>
				<g>
					<path class="st19" d="M30.31,396.99v15.87H1.5v-15.87H30.31 M31.31,395.99H0.5v17.87h30.81V395.99L31.31,395.99z"/>
				</g>
				<rect x="41.56" y="365.53" class="st20" width="30.81" height="17.87"/>
			</g>
		</g>
		<g>
			<g>
				<g>
					<path class="st19" d="M112.43,305.61v15.87H83.62v-15.87H112.43 M113.43,304.61H82.62v17.87h30.81V304.61L113.43,304.61z"/>
				</g>
				<rect x="41.56" y="274.15" class="st19" width="30.81" height="17.87"/>
			</g>
			<g>
				<rect x="0.5" y="243.69" class="st17" width="30.81" height="17.87"/>
				<rect x="41.56" y="243.69" class="st0" width="30.81" height="17.87"/>
			</g>
		</g>
		<g>
			<g>
				<rect x="0.5" y="182.77" class="st17" width="30.81" height="17.87"/>
				<g>
					<path class="st19" d="M30.31,214.23v15.87H1.5v-15.87H30.31 M31.31,213.23H0.5v17.87h30.81V213.23L31.31,213.23z"/>
				</g>
				<rect x="41.56" y="182.77" class="st20" width="30.81" height="17.87"/>
			</g>
		</g>
		<g>
			<g>
				<rect x="0.5" y="121.84" class="st24" width="30.81" height="17.87"/>
				<rect x="82.62" y="36.75" class="st24" width="30.81" height="17.87"/>
				<rect x="41.56" y="91.38" class="st20" width="30.81" height="17.87"/>
				<rect x="41.56" y="121.84" class="st17" width="30.81" height="17.87"/>
			</g>
			<g>
				<rect x="0.5" y="60.92" class="st17" width="30.81" height="17.87"/>
			</g>
		</g>
		<g>
			<g>
				<g>
					<path class="st19" d="M30.31,1v15.87H1.5V1H30.31 M31.31,0H0.5v17.87h30.81V0L31.31,0z"/>
				</g>
				<g>
					<path class="st0" d="M71.37,1v15.87H42.56V1H71.37 M72.37,0H41.56v17.87h30.81V0L72.37,0z"/>
				</g>
			</g>
		</g>
	</g>
</g>
<g id="Colors">
</g>
<g id="Nav_Bars">
</g>
<g id="Footers">
</g>
<g id="Header">
</g>
<g id="Names">
</g>
<g id="Layer_13">
</g>
<g id="Layer_14">
</g>
</svg>
