<?xml version="1.0" encoding="utf-8"?>
<!-- Generator: Adobe Illustrator 23.0.2, SVG Export Plug-In . SVG Version: 6.00 Build 0)  -->
<svg version="1.1" xmlns="http://www.w3.org/2000/svg" xmlns:xlink="http://www.w3.org/1999/xlink" x="0px" y="0px"
	 viewBox="0 0 320 56.89" style="enable-background:new 0 0 320 56.89;" xml:space="preserve">
<style type="text/css">
	.st0{fill:#0078D4;}
	.st1{fill:#50E6FF;}
	.st2{fill:none;stroke:#757575;stroke-miterlimit:10;}
	.st3{fill:none;stroke:#0078D4;stroke-width:2.88;stroke-miterlimit:10;}
	.st4{fill:#0078D4;stroke:#EBEBEB;stroke-miterlimit:10;}
	.st5{fill:#FFFFFF;stroke:#EBEBEB;stroke-miterlimit:10;}
	.st6{fill:#E6E7E8;stroke:#939598;stroke-miterlimit:10;}
	.st7{fill:#FFFFFF;}
	.st8{fill:none;stroke:#FFFFFF;stroke-width:2.88;stroke-miterlimit:10;}
	.st9{fill-rule:evenodd;clip-rule:evenodd;fill:#0078D4;}
	.st10{clip-path:url(#SVGID_2_);fill:none;stroke:#212121;stroke-miterlimit:10;}
	.st11{clip-path:url(#SVGID_2_);fill:#BCBCBC;}
	.st12{clip-path:url(#SVGID_2_);fill:#5E5E5E;}
	.st13{clip-path:url(#SVGID_2_);fill:#0078D4;}
	.st14{clip-path:url(#SVGID_2_);fill:#50E6FF;}
	.st15{clip-path:url(#SVGID_2_);}
	.st16{fill:#6D6E71;}
	.st17{fill:#3C3C3C;}
	.st18{opacity:0.8;fill:#FFFFFF;}
	.st19{fill:#333132;}
	.st20{fill:none;stroke:#333132;stroke-miterlimit:10;}
	.st21{fill:#0078D4;stroke:#000000;stroke-miterlimit:10;}
	.st22{fill:#EBEBEB;}
	.st23{fill:none;stroke:#5E5E5E;stroke-miterlimit:10;}
	.st24{fill:none;stroke:#50E6FF;stroke-miterlimit:10;}
	.st25{clip-path:url(#SVGID_4_);}
	.st26{fill:none;stroke:#212121;stroke-miterlimit:10;}
	.st27{fill:#BCBCBC;}
	.st28{fill:#5E5E5E;}
	.st29{clip-path:url(#SVGID_6_);}
	.st30{clip-path:url(#SVGID_8_);}
	.st31{fill:#EF5125;}
	.st32{fill:#80BA42;}
	.st33{fill:#787878;}
	.st34{fill:#757575;}
	.st35{fill:#349FD9;}
	.st36{fill:#FCB713;}
</style>
<g id="Guidelines">
</g>
<g id="Guides">
</g>
<g id="Layer_8">
</g>
<g id="Download_Blade">
</g>
<g id="Middle_Section">
</g>
<g id="Blade_1">
</g>
<g id="Hero">
</g>
<g id="Colors">
</g>
<g id="Nav_Bars">
</g>
<g id="Footers">
	<g>
		<g>
			<path class="st19" d="M50.89,22.99v10.9H30.65v-10.9H50.89 M51.89,21.99H29.65v12.9h22.24V21.99L51.89,21.99z"/>
		</g>
		<g>
			<path class="st19" d="M21.24,44.99v10.9H1v-10.9H21.24 M22.24,43.99H0v12.9h22.24V43.99L22.24,43.99z"/>
		</g>
		
			<rect x="29.65" y="43.99" transform="matrix(-1 -1.224647e-16 1.224647e-16 -1 81.5347 100.8772)" class="st1" width="22.24" height="12.9"/>
		<g>
			<path class="st19" d="M169.47,44.99v10.9h-20.24v-10.9H169.47 M170.47,43.99h-22.24v12.9h22.24V43.99L170.47,43.99z"/>
		</g>
		<rect x="268.11" y="21.99" class="st24" width="22.24" height="12.9"/>
		<g>
			<path class="st19" d="M110.18,22.99v10.9H89.94v-10.9H110.18 M111.18,21.99H88.94v12.9h22.24V21.99L111.18,21.99z"/>
		</g>
		<g>
			<g>
				<path class="st0" d="M21.24,1v10.9H1V1H21.24 M22.24,0H0v12.9h22.24V0L22.24,0z"/>
			</g>
		</g>
		<g>
			<g>
				
					<rect x="118.58" y="43.99" transform="matrix(-1 -1.224647e-16 1.224647e-16 -1 259.4098 100.8772)" class="st17" width="22.24" height="12.9"/>
			</g>
		</g>
		
			<rect x="297.76" y="43.99" transform="matrix(-1 -1.224647e-16 1.224647e-16 -1 617.757 100.8772)" class="st0" width="22.24" height="12.9"/>
		<g>
			<g>
				<g>
					<path class="st19" d="M289.35,44.99v10.9h-20.24v-10.9H289.35 M290.35,43.99h-22.24v12.9h22.24V43.99L290.35,43.99z"/>
				</g>
			</g>
		</g>
		<g>
			
				<rect x="59.29" y="43.99" transform="matrix(-1 -1.224647e-16 1.224647e-16 -1 140.8264 100.8772)" class="st17" width="22.24" height="12.9"/>
		</g>
	</g>
</g>
<g id="Header">
</g>
<g id="Names">
</g>
<g id="Layer_13">
</g>
<g id="Layer_14">
</g>
</svg>
