<svg id="list-globe" version="1.1" xmlns="http://www.w3.org/2000/svg" xmlns:xlink="http://www.w3.org/1999/xlink" x="0px" y="0px"
	 viewBox="0 0 38.06 50.62" style="enable-background:new 0 0 38.06 50.62;" xml:space="preserve">

<g id="Guidelines">
</g>
<g id="Guides">
</g>
<g id="Layer_8">
</g>
<g id="Download_Blade">
</g>
<g id="Middle_Section">
	<g>
		<g>
			<path class="st0" d="M38.06,16.6c0-5.91-2.31-11.43-6.51-15.55L30.48,0L0,30.63l1.02,1.06c4.1,4.27,9.6,6.62,15.49,6.62
				c0.29,0,0.58-0.01,0.87-0.02v9.33h-5.33v3h13.63v-3h-5.3v-9.67C30.42,36.11,38.06,27.24,38.06,16.6z M4.23,30.63L30.47,4.27
				c2.97,3.41,4.59,7.73,4.59,12.33c0,10.32-8.32,18.72-18.55,18.72C11.93,35.31,7.62,33.66,4.23,30.63z"/>
		</g>
		<ellipse cx="16.63" cy="16.86" rx="16.16" ry="16.14"/>
	</g>
</g>
<g id="Blade_1">
</g>
<g id="Hero">
</g>
<g id="Colors">
</g>
<g id="Nav_Bars">
</g>
<g id="Footers">
</g>
<g id="Header">
</g>
<g id="Names">
</g>
<g id="Layer_13">
</g>
<g id="Layer_14">
</g>
</svg>
