<svg id="list-cloud" version="1.1" xmlns="http://www.w3.org/2000/svg" xmlns:xlink="http://www.w3.org/1999/xlink" x="0px" y="0px"
	 viewBox="0 0 47.73 47.72" style="enable-background:new 0 0 47.73 47.72;" xml:space="preserve">

<g id="Guidelines">
</g>
<g id="Guides">
</g>
<g id="Layer_8">
</g>
<g id="Download_Blade">
</g>
<g id="Middle_Section">
	<g>
		<g>
			<path class="st0" d="M16.85,36.28h-4.32c-0.37-0.73-1.12-1.24-1.99-1.24c-1.23,0-2.24,1-2.24,2.24s1,2.24,2.24,2.24
				c0.87,0,1.62-0.51,1.99-1.24h4.32v6.3H4.28c-0.35-0.79-1.13-1.34-2.05-1.34C1,43.25,0,44.25,0,45.48c0,1.23,1,2.24,2.24,2.24
				c0.83,0,1.55-0.46,1.93-1.13h14.68V25.46h-2V36.28z"/>
			<path class="st0" d="M45.46,43.25c-0.92,0-1.7,0.55-2.05,1.34H30.67v-6.3h4.91c0.37,0.73,1.12,1.24,1.99,1.24
				c1.23,0,2.24-1,2.24-2.24s-1-2.24-2.24-2.24c-0.87,0-1.62,0.51-1.99,1.24h-4.91V25.46h-2v21.12h14.86
				c0.39,0.67,1.1,1.13,1.93,1.13c1.23,0,2.24-1,2.24-2.24C47.7,44.25,46.7,43.25,45.46,43.25z"/>
			<path class="st0" d="M24.88,35.45V24.1h-2v11.35c-0.73,0.37-1.24,1.12-1.24,1.99c0,1.23,1,2.24,2.24,2.24
				c1.23,0,2.24-1,2.24-2.24C26.12,36.57,25.61,35.82,24.88,35.45z"/>
		</g>
		<path d="M42.51,17.94H42.3c0.54-1.19,0.84-2.51,0.84-3.91c0-5.27-4.27-9.54-9.54-9.54c-1.38,0-2.69,0.3-3.87,0.83
			C27.13,2.08,23.14,0,18.67,0C10.84,0,4.49,6.35,4.49,14.18c0,1.31,0.19,2.58,0.53,3.78c-2.77,0.12-4.98,2.39-4.98,5.19v0
			c0,2.88,2.34,5.22,5.22,5.22h37.26c2.88,0,5.22-2.34,5.22-5.22C47.73,20.27,45.39,17.94,42.51,17.94z"/>
	</g>
</g>
<g id="Blade_1">
</g>
<g id="Hero">
</g>
<g id="Colors">
</g>
<g id="Nav_Bars">
</g>
<g id="Footers">
</g>
<g id="Header">
</g>
<g id="Names">
</g>
<g id="Layer_13">
</g>
<g id="Layer_14">
</g>
</svg>
