<?xml version="1.0" encoding="utf-8"?>
<!-- Generator: Adobe Illustrator 23.0.2, SVG Export Plug-In . SVG Version: 6.00 Build 0)  -->
<svg version="1.1" xmlns="http://www.w3.org/2000/svg" xmlns:xlink="http://www.w3.org/1999/xlink" x="0px" y="0px"
	 viewBox="0 0 153.08 117.03" style="enable-background:new 0 0 153.08 117.03;" xml:space="preserve">
<style type="text/css">
	.st0{fill:#0078D4;}
	.st1{fill:#50E6FF;}
	.st2{fill:none;stroke:#757575;stroke-miterlimit:10;}
	.st3{fill:none;stroke:#0078D4;stroke-width:2.88;stroke-miterlimit:10;}
	.st4{fill:#0078D4;stroke:#EBEBEB;stroke-miterlimit:10;}
	.st5{fill:#FFFFFF;stroke:#EBEBEB;stroke-miterlimit:10;}
	.st6{fill:#E6E7E8;stroke:#939598;stroke-miterlimit:10;}
	.st7{fill:#FFFFFF;}
	.st8{fill:none;stroke:#FFFFFF;stroke-width:2.88;stroke-miterlimit:10;}
	.st9{fill-rule:evenodd;clip-rule:evenodd;fill:#0078D4;}
	.st10{clip-path:url(#SVGID_2_);fill:none;stroke:#212121;stroke-miterlimit:10;}
	.st11{clip-path:url(#SVGID_2_);fill:#BCBCBC;}
	.st12{clip-path:url(#SVGID_2_);fill:#5E5E5E;}
	.st13{clip-path:url(#SVGID_2_);fill:#0078D4;}
	.st14{clip-path:url(#SVGID_2_);fill:#50E6FF;}
	.st15{clip-path:url(#SVGID_2_);}
	.st16{fill:#6D6E71;}
	.st17{fill:#3C3C3C;}
	.st18{opacity:0.8;fill:#FFFFFF;}
	.st19{fill:#333132;}
	.st20{fill:none;stroke:#333132;stroke-miterlimit:10;}
	.st21{fill:#0078D4;stroke:#000000;stroke-miterlimit:10;}
	.st22{fill:#EBEBEB;}
	.st23{fill:none;stroke:#5E5E5E;stroke-miterlimit:10;}
	.st24{fill:none;stroke:#50E6FF;stroke-miterlimit:10;}
	.st25{clip-path:url(#SVGID_4_);}
	.st26{fill:none;stroke:#212121;stroke-miterlimit:10;}
	.st27{fill:#BCBCBC;}
	.st28{fill:#5E5E5E;}
	.st29{clip-path:url(#SVGID_6_);}
	.st30{clip-path:url(#SVGID_8_);}
	.st31{fill:#EF5125;}
	.st32{fill:#80BA42;}
	.st33{fill:#787878;}
	.st34{fill:#757575;}
	.st35{fill:#349FD9;}
	.st36{fill:#FCB713;}
</style>
<g id="Guidelines">
	<g>
		<path class="st7" d="M121.32,51.98c-0.08,6.55-2.14,12.4-6.35,17.43c-4.39,5.25-10,8.46-16.76,9.52
			c-6.22,0.98-12.12-0.11-17.63-3.18c-0.93-0.52-1.82-1.08-2.67-1.72c-0.23-0.17-0.4-0.19-0.63-0.01
			c-3.02,2.23-6.38,3.74-10.03,4.58c-1.7,0.39-3.42,0.6-5.16,0.66c-4.23,0.14-8.26-0.67-12.11-2.39c-2.43-1.08-4.65-2.52-6.65-4.26
			c-3.47-3.01-6.04-6.67-7.68-10.96c-0.95-2.47-1.51-5.02-1.71-7.67c-0.32-4.37,0.36-8.56,2.05-12.6c1.48-3.53,3.62-6.6,6.4-9.24
			c2.18-2.08,4.62-3.75,7.36-5.01c0.32-0.15,0.5-0.32,0.52-0.71c0.11-2.61,0.54-5.17,1.37-7.65c1.19-3.54,3.01-6.72,5.5-9.52
			c3.71-4.17,8.27-6.97,13.67-8.39c2.49-0.65,5.03-0.95,7.6-0.85C84.6,0.25,90.17,2.3,94.96,6.28c5.42,4.51,8.64,10.29,9.69,17.26
			c0.15,0.96,0.2,1.94,0.26,2.91c0.02,0.33,0.13,0.51,0.43,0.64c2.18,0.98,4.18,2.24,6.02,3.77c3.24,2.7,5.77,5.95,7.52,9.8
			c1.14,2.52,1.89,5.14,2.23,7.88C121.25,49.69,121.35,50.83,121.32,51.98z M78.25,2.81c-2.8,0.01-4.91,0.27-6.98,0.82
			c-4.1,1.09-7.68,3.13-10.73,6.06c-2.4,2.3-4.24,4.99-5.55,8.04c-1,2.34-1.61,4.79-1.86,7.32c-0.07,0.73-0.04,0.75,0.64,0.56
			c3.33-0.92,6.71-1.26,10.15-0.87c0.29,0.03,0.43-0.1,0.57-0.33c0.76-1.29,1.57-2.55,2.46-3.75c1.57-2.11,3.31-4.05,5.58-5.45
			c2.18-1.34,4.51-1.94,7.05-1.31c2.78,0.69,4.88,2.42,6.76,4.47c1.68,1.83,3.07,3.88,4.32,6.01c0.17,0.28,0.35,0.38,0.68,0.34
			c2.26-0.26,4.51-0.17,6.76,0.17c1.2,0.18,2.39,0.44,3.56,0.79c0.32,0.09,0.42,0,0.4-0.31c-0.04-0.39-0.05-0.79-0.11-1.18
			c-0.87-6.22-3.66-11.43-8.42-15.51C88.95,4.79,83.61,2.87,78.25,2.81z M36.64,52.49c-0.03,0.6,0.06,1.72,0.22,2.84
			c0.56,3.95,1.99,7.55,4.3,10.81c1.86,2.61,4.14,4.78,6.84,6.51c0.4,0.26,0.43,0.24,0.53-0.23c0.13-0.62,0.26-1.24,0.4-1.87
			c1.9-8.75,4.14-17.4,6.94-25.91c0.11-0.35,0.07-0.6-0.15-0.89c-2.99-3.98-4.75-8.45-5.32-13.39c-0.04-0.33-0.1-0.42-0.43-0.25
			c-3.46,1.78-6.34,4.24-8.62,7.38C38.22,41.79,36.65,46.62,36.64,52.49z M118.52,51.98c0.03-1.56-0.12-3.11-0.42-4.64
			c-1.11-5.66-3.89-10.35-8.25-14.11c-1.43-1.23-2.99-2.27-4.67-3.13c-0.31-0.16-0.4-0.09-0.41,0.23c-0.01,0.28-0.06,0.56-0.1,0.84
			c-0.68,4.64-2.41,8.84-5.23,12.59c-0.21,0.28-0.25,0.52-0.14,0.85c1.79,5.42,3.34,10.92,4.73,16.46
			c0.94,3.73,1.81,7.47,2.59,11.23c0.13,0.61,0.14,0.62,0.65,0.28c1.86-1.22,3.56-2.64,5.04-4.32
			C116.39,63.61,118.46,58.18,118.52,51.98z M94.01,76.5c0.37,0.02,0.84-0.05,1.32-0.07c2.92-0.12,5.69-0.84,8.38-1.95
			c0.35-0.15,0.44-0.32,0.37-0.7c-0.53-2.56-1.08-5.11-1.68-7.66c-1.5-6.41-3.23-12.76-5.23-19.04c-0.16-0.5-0.16-0.5-0.52-0.14
			c-2.28,2.2-4.84,3.98-7.73,5.28c-0.3,0.14-0.43,0.31-0.42,0.64c0.02,1.11-0.11,2.2-0.29,3.29c-0.97,5.94-3.58,11.03-7.86,15.26
			c-0.56,0.56-0.74,0.45,0.12,1.02C84.54,75.11,89.03,76.44,94.01,76.5z M61.3,76.51c1.39-0.03,2.89-0.15,4.38-0.43
			c3.38-0.63,6.49-1.93,9.34-3.86c0.24-0.17,0.35-0.28,0.08-0.54c-1.18-1.12-2.26-2.33-3.22-3.65c-3.26-4.53-5.04-9.57-5.21-15.16
			c-0.01-0.33-0.12-0.51-0.42-0.65c-2.84-1.28-5.36-3.01-7.61-5.16c-0.5-0.47-0.49-0.48-0.7,0.18c-1.71,5.39-3.23,10.83-4.57,16.32
			c-0.83,3.42-1.61,6.85-2.31,10.3c-0.06,0.32,0.02,0.46,0.3,0.58C54.5,75.8,57.77,76.47,61.3,76.51z M77.58,51.92
			c2.65-0.03,5.23-0.42,7.74-1.27c0.26-0.09,0.38-0.21,0.35-0.48c-0.07-0.65-0.11-1.29-0.21-1.94c-0.57-3.69-1.9-7.08-4.02-10.15
			c-1-1.46-2.15-2.8-3.44-4.02c-0.41-0.39-0.44-0.39-0.86,0c-0.45,0.42-0.88,0.88-1.3,1.34c-2.56,2.8-4.38,6.01-5.45,9.65
			c-0.48,1.63-0.77,3.3-0.91,4.99c-0.02,0.28-0.01,0.5,0.35,0.62C72.35,51.49,74.93,51.89,77.58,51.92z M85.67,53.9
			c0.02-0.4,0-0.41-0.47-0.29c-0.14,0.04-0.27,0.08-0.41,0.12c-3.08,0.85-6.22,1.14-9.4,0.89c-1.86-0.15-3.7-0.48-5.49-1.03
			c-0.38-0.12-0.45,0.01-0.41,0.35c0.07,0.56,0.11,1.12,0.2,1.68c0.89,5.63,3.43,10.39,7.57,14.3c0.26,0.25,0.4,0.22,0.64-0.01
			c1.88-1.78,3.48-3.78,4.74-6.05C84.36,60.78,85.35,57.48,85.67,53.9z M89.14,27.87c0,0-0.04,0.01-0.08,0.02
			c-3.23,0.69-6.22,1.93-8.95,3.8c-0.27,0.19-0.24,0.31-0.03,0.52c0.77,0.73,1.49,1.51,2.16,2.32c2.72,3.29,4.57,7.01,5.56,11.17
			c0.26,1.09,0.44,2.19,0.57,3.3c0.04,0.34,0.17,0.37,0.43,0.21c0.23-0.14,0.47-0.26,0.7-0.39c2.3-1.29,4.33-2.9,6.13-4.83
			c0.3-0.32,0.3-0.59,0.17-0.98c-1.27-3.58-2.61-7.14-4.17-10.6c-0.64-1.43-1.29-2.86-2.05-4.23C89.5,28.01,89.42,27.83,89.14,27.87
			z M65.98,27.85c-0.17-0.01-0.27,0.08-0.34,0.22c-0.13,0.25-0.28,0.49-0.4,0.75c-2.34,4.65-4.24,9.49-5.95,14.4
			c-0.09,0.26-0.06,0.43,0.13,0.64c1.13,1.27,2.42,2.37,3.78,3.38c0.98,0.73,2.02,1.35,3.09,1.92c0.42,0.23,0.43,0.21,0.51-0.26
			c0.01-0.08,0.03-0.17,0.04-0.25c0.17-1.59,0.51-3.15,0.98-4.68c1.39-4.51,3.79-8.4,7.17-11.68c0.38-0.37,0.38-0.38-0.04-0.67
			c-2.11-1.44-4.39-2.51-6.83-3.23C67.41,28.18,66.69,28.03,65.98,27.85z M77.63,16.46c-1.73,0.02-3.18,0.67-4.49,1.66
			c-2.45,1.85-4.18,4.31-5.77,6.87c-0.16,0.25-0.03,0.31,0.19,0.36c3.52,0.84,6.75,2.33,9.67,4.46c0.26,0.19,0.45,0.19,0.71,0
			c2.93-2.13,6.15-3.63,9.68-4.46c0.27-0.06,0.32-0.16,0.17-0.4c-1.5-2.43-3.15-4.73-5.38-6.55C81,17.27,79.44,16.49,77.63,16.46z
			 M61.15,27.42c-0.76-0.04-1.47,0.02-2.19,0.08c-1.91,0.16-3.77,0.57-5.59,1.17c-0.21,0.07-0.29,0.18-0.27,0.4
			c0.05,0.49,0.06,0.99,0.13,1.48c0.48,3.51,1.62,6.78,3.51,9.78c0.1,0.16,0.17,0.45,0.36,0.43c0.2-0.01,0.2-0.31,0.26-0.48
			c1.03-2.86,2.13-5.69,3.37-8.47c0.59-1.33,1.21-2.65,1.86-3.95c0.2-0.39,0.17-0.43-0.25-0.44C61.93,27.41,61.52,27.42,61.15,27.42
			z M94.14,27.42c-0.44,0-0.88-0.01-1.31,0c-0.44,0.01-0.46,0.04-0.27,0.43c0.59,1.25,1.2,2.49,1.77,3.75
			c1.3,2.88,2.45,5.83,3.51,8.81c0.05,0.13,0.06,0.33,0.19,0.36c0.16,0.04,0.2-0.17,0.27-0.28c2.18-3.46,3.45-7.22,3.75-11.3
			c0.03-0.34-0.08-0.47-0.39-0.57C99.22,27.83,96.72,27.4,94.14,27.42z"/>
		<path class="st7" d="M143.97,110.81c0,1.63,0.01,3.22,0,4.82c-0.01,1.22,0.18,1.07-1.08,1.08c-0.42,0-0.85-0.01-1.27,0
			c-0.35,0.01-0.49-0.14-0.47-0.48c0.01-0.25,0-0.51,0-0.76c0-5.78,0-11.56,0-17.34c0-0.67,0-0.67,0.69-0.67
			c0.49,0,0.99,0.02,1.48-0.01c0.44-0.03,0.58,0.15,0.55,0.57c-0.02,0.32,0,0.65,0,0.96c0.15,0.07,0.18-0.04,0.22-0.1
			c1.18-1.56,2.81-2.04,4.66-1.81c2.06,0.25,3.36,1.41,3.85,3.46c0.64,2.72,0.65,5.47,0,8.19c-0.35,1.46-1.13,2.66-2.56,3.29
			c-1.55,0.68-4.31,0.67-5.74-1C144.22,110.94,144.16,110.83,143.97,110.81z M143.97,104.63c0,0.6-0.01,1.11,0,1.62
			c0.02,0.58,0.07,1.15,0.26,1.71c0.45,1.31,1.67,2.13,3.04,2.05c1.4-0.08,2.31-0.88,2.6-2.35c0.36-1.86,0.39-3.73,0.06-5.6
			c-0.15-0.89-0.46-1.74-1.32-2.21c-1.93-1.05-4.3,0.22-4.56,2.43C143.94,103.08,143.98,103.9,143.97,104.63z"/>
		<path class="st7" d="M129.87,110.76c0,1.83,0,3.56,0,5.28c0,0.68,0,0.68-0.68,0.68c-0.58,0-1.16-0.01-1.74,0
			c-0.28,0-0.43-0.11-0.4-0.4c0.01-0.07,0-0.14,0-0.21c0-6.01,0-12.01,0-18.02c0-0.63,0-0.63,0.64-0.63c0.54,0,1.07,0.01,1.61,0
			c0.28,0,0.41,0.11,0.41,0.4c0.01,0.36,0.06,0.72,0.08,1.01c0.22-0.18,0.49-0.37,0.72-0.59c2.45-2.38,6.76-1.35,7.85,1.86
			c0.27,0.81,0.41,1.64,0.48,2.49c0.15,1.88,0.15,3.75-0.24,5.61c-0.26,1.24-0.76,2.36-1.75,3.21c-1.54,1.32-5.03,1.4-6.63-0.37
			C130.13,110.99,130.04,110.91,129.87,110.76z M129.86,104.71c0.06,0.91-0.08,1.84,0.1,2.74c0.32,1.58,1.55,2.59,3.09,2.54
			c1.53-0.05,2.49-0.96,2.75-2.63c0.05-0.33,0.11-0.67,0.13-1.01c0.07-1.48,0.17-2.96-0.15-4.43c-0.21-0.98-0.59-1.9-1.64-2.25
			c-1.86-0.62-3.68,0.23-4.16,2.29C129.77,102.88,129.92,103.8,129.86,104.71z"/>
		<path class="st7" d="M12.94,98.93c0.46-0.46,0.94-0.84,1.46-1.17c1.59-1.01,4.07-0.99,5.46,0.07c1,0.76,1.42,1.85,1.43,3.04
			c0.05,3.56,0.02,7.12,0.03,10.68c0,0.34-0.15,0.44-0.46,0.43c-0.61-0.01-1.22-0.02-1.82,0c-0.41,0.02-0.54-0.13-0.54-0.53
			c0.01-2.2,0.01-4.41,0.01-6.61c0-0.95,0.01-1.89,0-2.84c-0.02-2.06-1.87-3.09-3.68-2.04c-1.07,0.62-1.61,1.59-1.81,2.78
			c-0.07,0.4-0.09,0.81-0.09,1.22c0.01,2.47,0,4.95,0,7.42c0,0.6,0,0.6-0.58,0.6c-0.54,0-1.07,0-1.61,0c-0.62,0-0.62,0-0.62-0.65
			c0-1.96,0-3.93,0-5.89c0-4.14,0-8.28,0-12.42c0-0.65,0-0.65,0.66-0.65c0.55,0,1.1,0.02,1.65-0.01c0.39-0.02,0.51,0.13,0.51,0.52
			c-0.01,1.91-0.01,3.82-0.01,5.72C12.93,98.71,12.93,98.82,12.94,98.93z"/>
		<path class="st7" d="M93.33,102.62c0.24-0.04,0.32-0.19,0.42-0.29c1.48-1.5,2.95-3,4.42-4.51c0.24-0.25,0.5-0.38,0.85-0.37
			c0.75,0.02,1.5,0,2.25,0.01c0.15,0,0.35-0.07,0.43,0.08c0.08,0.17-0.13,0.26-0.23,0.36c-1.23,1.25-2.47,2.49-3.7,3.74
			c-0.5,0.51-0.5,0.51-0.18,1.15c1.44,2.87,2.87,5.74,4.31,8.61c0.29,0.58,0.29,0.58-0.38,0.58c-0.71,0-1.41-0.01-2.12,0
			c-0.3,0.01-0.46-0.11-0.59-0.37c-1.09-2.24-2.18-4.47-3.28-6.7c-0.38-0.78-0.28-0.66-0.82-0.14c-0.36,0.36-0.71,0.73-1.08,1.08
			c-0.22,0.21-0.31,0.44-0.31,0.75c0.01,1.61-0.01,3.22,0.01,4.83c0.01,0.43-0.14,0.57-0.56,0.55c-0.62-0.03-1.24-0.02-1.87-0.01
			c-0.29,0-0.42-0.12-0.4-0.41c0.01-0.1,0-0.2,0-0.3c0-6.08,0-12.15,0-18.23c0-0.68,0-0.68,0.67-0.69c0.47,0,0.93,0,1.4,0
			c0.75,0,0.75,0,0.75,0.73c0,3,0,5.99,0,8.99C93.33,102.25,93.33,102.41,93.33,102.62z"/>
		<path class="st7" d="M68.91,105.62c-1.29,0-2.57,0.01-3.86-0.01c-0.37-0.01-0.5,0.12-0.48,0.49c0.03,0.55,0.07,1.1,0.2,1.64
			c0.33,1.35,1.25,2.14,2.63,2.25c1.35,0.11,2.53-0.21,3.32-1.42c0.13-0.19,0.25-0.22,0.45-0.11c0.53,0.29,1.07,0.57,1.62,0.83
			c0.29,0.14,0.28,0.29,0.14,0.53c-0.62,1.01-1.42,1.78-2.56,2.18c-1.51,0.53-3.06,0.57-4.6,0.2c-2.1-0.5-3.28-1.94-3.71-3.98
			c-0.53-2.5-0.49-5.01,0.22-7.47c0.67-2.32,2.39-3.6,4.81-3.72c1.05-0.05,2.1-0.04,3.09,0.37c1.86,0.75,2.66,2.27,2.94,4.14
			c0.18,1.2,0.17,2.42,0.17,3.64c0,0.34-0.14,0.44-0.46,0.44C71.54,105.61,70.22,105.62,68.91,105.62z M67.56,103.49
			c0.83,0,1.67-0.01,2.5,0c0.32,0,0.45-0.12,0.45-0.45c-0.01-0.58-0.06-1.16-0.21-1.72c-0.51-1.88-2.7-2.67-4.33-1.58
			c-0.2,0.14-0.37,0.3-0.51,0.5c-0.6,0.87-0.78,1.86-0.8,2.89c-0.01,0.29,0.17,0.35,0.41,0.35
			C65.89,103.49,66.72,103.49,67.56,103.49z"/>
		<path class="st7" d="M121.63,110.39c-0.53,0.39-0.93,0.83-1.41,1.17c-1.64,1.17-4.26,1.18-5.78-0.01
			c-0.82-0.65-1.21-1.54-1.36-2.55c-0.07-0.49-0.09-0.98-0.09-1.48c0.01-3.12,0-6.25,0-9.37c0-0.69,0-0.69,0.71-0.69
			c0.47,0,0.93,0,1.4,0c0.71,0,0.71,0,0.71,0.73c0,2.91,0,5.82,0,8.73c0,0.39,0.02,0.79,0.1,1.18c0.25,1.29,1.18,1.8,2.53,1.69
			c1.32-0.1,2.16-0.91,2.67-2.07c0.26-0.58,0.37-1.21,0.36-1.86c-0.01-2.59,0-5.17,0-7.76c0-0.65,0-0.65,0.66-0.65
			c0.57,0,1.13,0.01,1.7,0c0.31-0.01,0.46,0.09,0.46,0.43c-0.01,4.55-0.01,9.1,0,13.65c0,0.33-0.13,0.45-0.45,0.44
			c-0.59-0.02-1.19-0.01-1.78,0c-0.3,0.01-0.44-0.11-0.43-0.42C121.64,111.17,121.63,110.78,121.63,110.39z"/>
		<path class="st7" d="M78.86,99.09c0.83-0.95,1.75-1.66,2.95-1.92c1.22-0.26,2.43-0.24,3.55,0.35c1.4,0.73,1.9,2.05,1.92,3.5
			c0.06,3.5,0.02,7.01,0.03,10.51c0,0.34-0.13,0.45-0.45,0.44c-0.61-0.01-1.22-0.03-1.82,0c-0.44,0.02-0.55-0.15-0.55-0.56
			c0.01-2.97,0.01-5.93,0.01-8.9c0-0.24,0.01-0.48-0.01-0.72c-0.09-1.65-1.03-2.32-2.64-2.16c-1.29,0.13-2.11,0.95-2.59,2.11
			c-0.25,0.59-0.35,1.22-0.35,1.86c0,2.6,0,5.2,0,7.8c0,0.56-0.01,0.57-0.57,0.57c-0.57,0-1.13-0.02-1.7,0.01
			c-0.42,0.02-0.56-0.12-0.56-0.55c0.01-3.22,0.01-6.44,0.01-9.66c0-1.26,0.01-2.52-0.01-3.77c-0.01-0.4,0.11-0.56,0.53-0.54
			c0.56,0.03,1.13,0.02,1.7,0c0.33-0.01,0.45,0.13,0.44,0.45C78.73,98.28,78.73,98.66,78.86,99.09z"/>
		<path class="st7" d="M29.18,107.4c0.41-1.09,0.78-2.07,1.15-3.04c0.81-2.16,1.63-4.31,2.43-6.47c0.11-0.31,0.28-0.45,0.62-0.44
			c0.61,0.02,1.22,0,1.82,0.01c0.5,0,0.52,0.03,0.34,0.5c-0.81,2.08-1.63,4.16-2.44,6.24c-1.21,3.11-2.42,6.22-3.65,9.32
			c-0.38,0.95-0.83,1.86-1.6,2.57c-0.98,0.9-2.16,1.02-3.4,0.92c-0.25-0.02-0.33-0.18-0.33-0.4c0-0.58,0-1.16,0-1.74
			c0-0.24,0.1-0.37,0.36-0.35c0.08,0.01,0.17,0,0.25,0c0.91,0.06,1.56-0.34,1.97-1.13c0.32-0.61,0.6-1.25,0.9-1.87
			c0.12-0.25,0.03-0.47-0.05-0.7c-1.13-3.11-2.25-6.22-3.38-9.33c-0.43-1.2-0.86-2.4-1.3-3.59c-0.13-0.35-0.03-0.46,0.32-0.45
			c0.66,0.02,1.33,0.02,1.99,0c0.31-0.01,0.45,0.12,0.55,0.4c1.05,2.96,2.12,5.91,3.18,8.86C28.98,106.91,29.06,107.09,29.18,107.4z
			"/>
		<path class="st7" d="M54.29,112.4c-1.51,0.07-2.86-0.3-4.05-1.18c-0.61-0.46-1.06-1.05-1.4-1.73c-0.13-0.26-0.1-0.41,0.18-0.52
			c0.55-0.22,1.09-0.46,1.63-0.71c0.25-0.11,0.41-0.1,0.56,0.16c1.03,1.77,2.99,1.97,4.61,1.37c1.2-0.44,1.41-1.92,0.45-2.76
			c-0.28-0.25-0.61-0.4-0.96-0.54c-1.05-0.41-2.11-0.81-3.17-1.21c-0.61-0.23-1.16-0.58-1.67-0.99c-1.25-1.01-1.65-3-0.94-4.62
			c0.4-0.92,1.02-1.64,1.95-2.03c2.03-0.84,4.07-0.87,6.08,0.08c0.83,0.39,1.42,1.05,1.82,1.88c0.12,0.24,0.09,0.38-0.16,0.5
			c-0.55,0.25-1.1,0.52-1.64,0.79c-0.2,0.1-0.31,0.08-0.44-0.13c-0.89-1.45-2.8-1.97-4.34-1.18c-1.15,0.59-1.28,2.12-0.24,2.87
			c0.78,0.56,1.7,0.83,2.6,1.12c0.6,0.19,1.21,0.39,1.81,0.61c3.03,1.12,3.33,4.83,1.57,6.78c-0.64,0.7-1.49,1.06-2.4,1.28
			C55.54,112.37,54.9,112.44,54.29,112.4z"/>
		<path class="st7" d="M41.89,112.41c-1.54,0.06-2.94-0.35-4.16-1.3c-0.54-0.43-0.93-0.98-1.24-1.59c-0.13-0.26-0.1-0.44,0.2-0.56
			c0.54-0.21,1.07-0.45,1.59-0.7c0.25-0.12,0.41-0.09,0.56,0.16c0.59,1.03,1.49,1.56,2.66,1.64c0.66,0.04,1.33,0,1.96-0.26
			c0.6-0.24,0.98-0.65,1.02-1.33c0.04-0.69-0.17-1.26-0.78-1.62c-0.85-0.49-1.78-0.78-2.69-1.13c-0.73-0.27-1.47-0.51-2.14-0.91
			c-1.62-0.97-2.26-2.38-1.93-4.23c0.29-1.63,1.26-2.7,2.81-3.19c1.63-0.51,3.28-0.53,4.91,0.07c1.02,0.37,1.8,1.03,2.33,2
			c0.18,0.32,0.18,0.52-0.2,0.68c-0.51,0.21-1,0.47-1.49,0.72c-0.23,0.11-0.37,0.07-0.52-0.16c-0.89-1.39-2.77-1.9-4.26-1.17
			c-1.24,0.61-1.36,2.18-0.22,2.97c0.71,0.49,1.53,0.72,2.33,1c0.65,0.23,1.31,0.44,1.96,0.67c3.02,1.08,3.16,4.51,2,6.25
			c-0.78,1.17-1.94,1.62-3.23,1.9C42.88,112.42,42.39,112.42,41.89,112.41z"/>
		<path class="st7" d="M1.87,104.33c0-1.59-0.01-2.87,0.01-4.16c0.01-0.4-0.13-0.53-0.51-0.5c-0.32,0.02-0.65,0-0.97,0.01
			C0.12,99.69,0,99.58,0,99.31c0.01-0.49,0.01-0.99,0-1.48c0-0.28,0.14-0.37,0.39-0.37c0.34,0.01,0.68-0.02,1.02,0
			c0.36,0.02,0.47-0.12,0.46-0.47c-0.01-1.33-0.01-2.66-0.01-3.99c0-0.64,0-0.64,0.66-0.64c0.49,0,0.99,0,1.48,0
			c0.66,0,0.66,0,0.67,0.65c0,1.3,0.02,2.6-0.01,3.9c-0.01,0.43,0.13,0.57,0.56,0.56c0.66-0.03,1.33,0,1.99-0.01
			c0.3-0.01,0.44,0.11,0.43,0.42c-0.01,0.44-0.02,0.88,0,1.31c0.02,0.36-0.11,0.51-0.49,0.5c-0.66-0.02-1.33,0.01-1.99-0.01
			c-0.35-0.01-0.51,0.09-0.51,0.47c0.02,2.52,0,5.03,0.02,7.55c0.01,1.39,0.63,1.98,2.01,1.98c0.11,0,0.23,0,0.34,0
			c0.77-0.01,0.77-0.01,0.77,0.79c0,0.38,0,0.76,0,1.14c0,0.2-0.05,0.36-0.29,0.39c-1.19,0.13-2.37,0.16-3.51-0.31
			c-1.36-0.57-1.89-1.7-2.06-3.07C1.77,107.09,1.93,105.56,1.87,104.33z"/>
		<path class="st7" d="M106.55,100.19c0.58-0.85,1.19-1.59,2.05-2.12c0.67-0.41,1.39-0.61,2.17-0.62c0.32,0,0.47,0.09,0.46,0.43
			c-0.02,0.66-0.01,1.33,0,1.99c0,0.29-0.12,0.4-0.41,0.39c-0.41-0.01-0.82-0.04-1.23,0.05c-1.41,0.31-2.2,1.26-2.59,2.58
			c-0.2,0.68-0.29,1.38-0.29,2.09c0,2.11,0,4.21,0,6.32c0,0.66-0.01,0.67-0.65,0.67c-0.57,0-1.13-0.02-1.7,0.01
			c-0.42,0.02-0.53-0.15-0.53-0.54c0.02-1.47,0.01-2.94,0.01-4.41c0-2.97,0-5.94,0-8.91c0-0.65,0.01-0.67,0.66-0.67
			c0.52,0,1.05,0.02,1.57-0.01c0.38-0.02,0.5,0.14,0.49,0.5C106.53,98.7,106.55,99.44,106.55,100.19z"/>
	</g>
</g>
<g id="Guides">
</g>
<g id="Layer_8">
</g>
<g id="Download_Blade">
</g>
<g id="Middle_Section">
</g>
<g id="Blade_1">
</g>
<g id="Hero">
</g>
<g id="Colors">
</g>
<g id="Nav_Bars">
</g>
<g id="Footers">
</g>
<g id="Header">
</g>
<g id="Names">
</g>
<g id="Layer_13">
</g>
<g id="Layer_14">
</g>
</svg>
