<?xml version="1.0" encoding="utf-8"?>
<!-- Generator: Adobe Illustrator 23.0.2, SVG Export Plug-In . SVG Version: 6.00 Build 0)  -->
<svg version="1.1" xmlns="http://www.w3.org/2000/svg" xmlns:xlink="http://www.w3.org/1999/xlink" x="0px" y="0px"
	 viewBox="0 0 163.8 163.82" style="enable-background:new 0 0 163.8 163.82;" xml:space="preserve">
<style type="text/css">
	.st0{fill:#0078D4;}
	.st1{fill:#50E6FF;}
	.st2{fill:none;stroke:#757575;stroke-miterlimit:10;}
	.st3{fill:none;stroke:#0078D4;stroke-width:2.88;stroke-miterlimit:10;}
	.st4{fill:#0078D4;stroke:#EBEBEB;stroke-miterlimit:10;}
	.st5{fill:#FFFFFF;stroke:#EBEBEB;stroke-miterlimit:10;}
	.st6{fill:#E6E7E8;stroke:#939598;stroke-miterlimit:10;}
	.st7{fill:#FFFFFF;}
	.st8{fill:none;stroke:#FFFFFF;stroke-width:2.88;stroke-miterlimit:10;}
	.st9{fill-rule:evenodd;clip-rule:evenodd;fill:#0078D4;}
	.st10{clip-path:url(#SVGID_2_);fill:none;stroke:#212121;stroke-miterlimit:10;}
	.st11{clip-path:url(#SVGID_2_);fill:#BCBCBC;}
	.st12{clip-path:url(#SVGID_2_);fill:#5E5E5E;}
	.st13{clip-path:url(#SVGID_2_);fill:#0078D4;}
	.st14{clip-path:url(#SVGID_2_);fill:#50E6FF;}
	.st15{clip-path:url(#SVGID_2_);}
	.st16{fill:#6D6E71;}
	.st17{fill:#3C3C3C;}
	.st18{opacity:0.8;fill:#FFFFFF;}
	.st19{fill:#333132;}
	.st20{fill:none;stroke:#333132;stroke-miterlimit:10;}
	.st21{fill:#0078D4;stroke:#000000;stroke-miterlimit:10;}
	.st22{fill:#EBEBEB;}
	.st23{fill:none;stroke:#5E5E5E;stroke-miterlimit:10;}
	.st24{fill:none;stroke:#50E6FF;stroke-miterlimit:10;}
	.st25{clip-path:url(#SVGID_4_);}
	.st26{fill:none;stroke:#212121;stroke-miterlimit:10;}
	.st27{fill:#BCBCBC;}
	.st28{fill:#5E5E5E;}
	.st29{clip-path:url(#SVGID_6_);}
	.st30{clip-path:url(#SVGID_8_);}
	.st31{fill:#EF5125;}
	.st32{fill:#80BA42;}
	.st33{fill:#787878;}
	.st34{fill:#757575;}
	.st35{fill:#349FD9;}
	.st36{fill:#FCB713;}
</style>
<g id="Guidelines">
</g>
<g id="Guides">
</g>
<g id="Layer_8">
</g>
<g id="Download_Blade">
</g>
<g id="Middle_Section">
</g>
<g id="Blade_1">
</g>
<g id="Hero">
</g>
<g id="Colors">
</g>
<g id="Nav_Bars">
</g>
<g id="Footers">
	<g>
		<path class="st7" d="M0,81.91C-0.05,36.69,36.77-0.1,82.13,0c44.99,0.1,81.83,36.76,81.67,82.23
			c-0.15,44.94-36.83,81.91-82.54,81.58C36.56,163.49-0.02,127.11,0,81.91z M81.9,138.05c30.96,0.02,56.1-25.09,56.14-56.07
			c0.04-31.06-25.14-56.18-56.07-56.21c-31.06-0.03-56.22,25.16-56.21,56.15C25.75,112.86,50.86,138.06,81.9,138.05z M20.96,116.3
			c0.01-0.37,0.19-0.48,0.32-0.61c1.75-1.86,3.49-3.73,5.26-5.57c0.4-0.42,0.5-0.76,0.13-1.25c-0.35-0.46-0.63-0.97-0.94-1.46
			c-0.45-0.68-0.49-0.7-1.03-0.08c-2.72,3.16-5.43,6.32-8.13,9.5c-0.86,1.01-0.83,1.03-0.1,2.16c0.12,0.18,0.24,0.36,0.34,0.56
			c0.21,0.42,0.5,0.49,0.95,0.36c1.9-0.55,3.81-1.06,5.72-1.58c1.12-0.31,2.25-0.6,3.53-0.95c-0.17,0.25-0.23,0.35-0.3,0.44
			c-1.63,2-3.26,3.99-4.89,5.99c-1.25,1.53-1.23,1.51-0.17,3.16c0.35,0.55,0.7,0.6,1.26,0.42c1.33-0.43,2.67-0.82,4.01-1.22
			c2.84-0.85,5.68-1.72,8.52-2.55c0.53-0.16,0.62-0.36,0.3-0.8c-0.31-0.43-0.6-0.88-0.85-1.34c-0.3-0.56-0.66-0.63-1.24-0.42
			c-2.46,0.87-4.93,1.69-7.39,2.52c-0.23,0.08-0.46,0.22-0.83,0.14c1.59-1.94,3.15-3.81,4.67-5.7c1.66-2.06,1.67-1.26,0.2-3.59
			c-0.25-0.4-0.53-0.49-0.96-0.36c-1.23,0.35-2.47,0.66-3.7,0.99C24.09,115.47,22.56,115.88,20.96,116.3z M118.21,146.73
			c4.28,0.01,8.11-3.54,8.11-7.52c0-4.04-3.47-7.68-7.32-7.67c-4.12,0.02-8.01,3.72-8.01,7.61
			C110.99,143.16,114.39,146.73,118.21,146.73z M124.57,127.97c-0.27,3.7,3.59,7.45,7.36,7.47c4.01,0.02,7.84-3.81,7.85-7.87
			c0.01-3.89-3.57-7.47-7.46-7.46C128.31,120.11,124.57,123.91,124.57,127.97z M69.46,16.44c0-4.34-3.07-7.77-7.13-7.69
			c-4.37,0.08-8.08,2.86-8.07,7.23c0.01,3.62,2.22,7.74,7.17,7.71C65.93,23.65,69.51,20.68,69.46,16.44z M148.89,113.67
			c0.01-4.27-3.87-7.56-8.09-6.85c-1.81,0.3-3.16,1.38-4.27,2.77c-1.42,1.79-2.28,3.9-3.37,5.89c-0.22,0.4,0.09,0.5,0.34,0.63
			c3.79,2.01,7.57,4.02,11.36,6.03c0.37,0.2,0.6,0.18,0.81-0.22c0.71-1.37,1.48-2.7,2.16-4.09
			C148.47,116.52,148.95,115.16,148.89,113.67z M104.08,153.83c2.01-0.11,4.46-1.23,6.6-3.1c0.33-0.29,0.41-0.59,0.27-1.02
			c-0.65-1.89-1.28-3.79-1.89-5.7c-0.16-0.49-0.4-0.65-0.91-0.47c-1.32,0.46-2.65,0.88-3.99,1.31c-0.37,0.12-0.53,0.29-0.39,0.68
			c0.2,0.57,0.39,1.14,0.57,1.72c0.12,0.4,0.37,0.45,0.73,0.32c0.43-0.15,0.87-0.29,1.3-0.43c0.21-0.07,0.41-0.11,0.59,0.1
			c0.78,0.93,0.66,2.1-0.35,2.73c-1.63,1.02-3.38,1.47-5.12,0.42c-1.8-1.09-2.47-2.85-2.22-4.91c0.32-2.62,3.34-4.37,5.94-3.47
			c0.56,0.19,0.79,0.06,0.98-0.43c0.22-0.54,0.44-1.07,0.72-1.58c0.3-0.53,0.14-0.76-0.41-0.92c-1.64-0.5-3.24-0.28-4.84,0.19
			c-3.34,0.96-6.13,3.84-5.61,7.99C96.54,151.09,99.43,153.83,104.08,153.83z M49.89,20.34c-0.11-1.39-0.71-2.55-1.78-3.43
			c-1.37-1.12-2.87-0.96-4.35-0.28c-1.95,0.9-3.68,2.2-5.54,3.26c-0.4,0.23-0.31,0.46-0.12,0.76c0.64,1.02,1.27,2.05,1.9,3.07
			c1.6,2.58,3.21,5.15,4.79,7.74c0.33,0.55,0.64,0.63,1.14,0.25c0.38-0.29,0.8-0.54,1.22-0.77c0.55-0.29,0.62-0.62,0.26-1.15
			c-0.76-1.14-1.47-2.32-2.19-3.49c-0.12-0.2-0.32-0.39-0.17-0.66c0.26-0.47,1.21-0.7,1.69-0.41c1.33,0.79,2.67,1.54,3.97,2.37
			c0.65,0.42,1.19,0.5,1.82,0c0.49-0.38,1.06-0.66,1.59-1c0.59-0.37,0.59-0.46-0.03-0.78c-1.58-0.82-3.16-1.65-4.76-2.44
			c-0.5-0.25-0.58-0.48-0.23-0.92C49.61,21.86,49.84,21.13,49.89,20.34z M41.19,134.22c-0.11-0.08-0.26-0.19-0.41-0.31
			c-1.14-0.96-2.26-1.95-3.43-2.88c-0.54-0.43-0.5-0.76-0.08-1.23c0.83-0.93,1.61-1.92,2.45-2.85c0.36-0.4,0.3-0.63-0.11-0.92
			c-0.39-0.28-0.74-0.62-1.1-0.93c-0.72-0.62-0.78-0.6-1.41,0.15c-1.54,1.82-3.09,3.64-4.63,5.45c-1.12,1.32-2.24,2.65-3.37,3.96
			c-0.34,0.39-0.36,0.66,0.1,0.99c0.47,0.33,0.9,0.73,1.31,1.13c0.37,0.35,0.61,0.3,0.93-0.09c0.99-1.21,2.07-2.35,3.04-3.58
			c0.41-0.52,0.69-0.43,1.1-0.07c1.14,1,2.28,2.01,3.46,2.96c0.43,0.35,0.45,0.59,0.1,0.99c-1.01,1.16-1.99,2.35-3,3.52
			c-0.36,0.41-0.39,0.74,0.06,1.09c0.47,0.37,0.94,0.76,1.39,1.16c0.33,0.29,0.54,0.25,0.82-0.1c0.91-1.12,1.86-2.21,2.8-3.31
			c1.82-2.15,3.63-4.31,5.47-6.45c0.37-0.42,0.32-0.67-0.11-0.98c-0.45-0.32-0.89-0.67-1.26-1.08c-0.43-0.47-0.7-0.3-1.03,0.11
			c-0.83,1-1.69,1.98-2.53,2.97C41.59,134.05,41.48,134.23,41.19,134.22z M86.66,19.78c-0.11,0.43,0.19,0.56,0.6,0.62
			c2.79,0.42,5.57,0.84,8.36,1.27c0.54,0.08,0.83-0.08,0.89-0.64c0.04-0.46,0.09-0.91,0.2-1.36c0.14-0.58-0.1-0.78-0.64-0.85
			c-1.6-0.22-3.19-0.47-4.79-0.71c-1.2-0.18-1.2-0.18-1.02-1.35c0.05-0.36,0.13-0.71,0.15-1.07c0.03-0.48,0.25-0.59,0.71-0.52
			c1.52,0.25,3.05,0.45,4.57,0.7c0.6,0.1,0.93-0.06,0.97-0.7c0.03-0.41,0.07-0.82,0.18-1.21c0.19-0.67-0.14-0.85-0.72-0.92
			c-1.15-0.15-2.29-0.31-3.43-0.5c-2.06-0.35-1.74-0.04-1.48-2.18c0.07-0.56,0.37-0.69,0.91-0.6c1.59,0.27,3.19,0.48,4.78,0.75
			c0.56,0.1,0.88,0,0.93-0.64c0.03-0.45,0.12-0.91,0.21-1.36c0.11-0.53-0.11-0.75-0.62-0.83c-2.62-0.39-5.25-0.75-7.86-1.2
			c-0.76-0.13-0.93,0.17-1.01,0.79c-0.16,1.17-0.35,2.33-0.53,3.5C87.58,13.75,87.13,16.73,86.66,19.78z M54.78,137.19
			c0.09-0.38-0.04-0.65-0.4-0.82c-0.39-0.19-0.79-0.37-1.15-0.61c-0.45-0.3-0.78-0.28-1.21,0.08c-1.98,1.65-3.99,3.26-5.99,4.88
			c-1.63,1.32-3.24,2.66-4.88,3.96c-0.41,0.32-0.36,0.47,0.07,0.68c0.67,0.33,1.32,0.69,1.98,1.05c0.31,0.17,0.58,0.14,0.85-0.1
			c0.56-0.5,1.14-0.96,1.71-1.45c0.22-0.19,0.43-0.27,0.72-0.12c1.3,0.69,2.59,1.38,3.9,2.05c0.46,0.24,0.59,0.58,0.53,1.06
			c-0.08,0.64-0.12,1.29-0.21,1.94c-0.05,0.34,0.05,0.55,0.35,0.71c0.68,0.35,1.36,0.72,2.04,1.09c0.48,0.26,0.69,0.15,0.72-0.42
			C54.13,146.5,54.46,141.85,54.78,137.19z M33.56,25.33c-1.57-0.04-2.62,0.66-3.55,1.5c-1.29,1.16-2.5,2.41-3.76,3.59
			c-0.43,0.4-0.45,0.67-0.02,1.11c2.68,2.73,5.32,5.51,8,8.24c1.51,1.54,1.08,1.5,2.59,0.05c0.14-0.13,0.26-0.28,0.41-0.4
			c0.39-0.31,0.39-0.61,0.04-0.96c-0.93-0.94-1.82-1.93-2.77-2.84c-0.51-0.49-0.53-0.86,0.02-1.28c0.21-0.16,0.4-0.34,0.6-0.52
			c0.78-0.69,1.46-1.47,1.95-2.4C38.46,28.72,36.38,25.32,33.56,25.33z M80.86,157.29c0.27,0,0.53,0.03,0.79,0
			c1.86-0.22,3.54-0.84,4.26-2.73c0.83-2.16,0.43-4.42-2.09-5.35c-0.61-0.22-1.23-0.42-1.84-0.65c-0.45-0.17-0.89-0.36-1.33-0.57
			c-0.48-0.23-0.74-0.63-0.74-1.15c0-0.53,0.31-0.9,0.77-1.13c0.81-0.41,1.75-0.53,2.43-0.04c1.12,0.82,1.7,0.23,2.34-0.54
			c0.14-0.17,0.29-0.33,0.46-0.46c0.55-0.44,0.41-0.77-0.14-1.09c-2.13-1.24-4.35-1.4-6.58-0.39c-2.07,0.95-3,3.24-2.25,5.26
			c0.42,1.14,1.38,1.68,2.41,2.14c0.99,0.44,2.08,0.63,3.02,1.19c0.54,0.32,0.91,0.75,0.8,1.41c-0.1,0.62-0.55,0.95-1.1,1.13
			c-1.21,0.4-2.31,0.12-3.22-0.72c-0.44-0.41-0.69-0.37-1.04,0.04c-0.4,0.48-0.81,0.96-1.27,1.39c-0.44,0.41-0.31,0.66,0.11,0.95
			C77.92,156.86,79.31,157.34,80.86,157.29z M125.23,34.31C125.23,34.31,125.23,34.31,125.23,34.31c-0.36,0.01-0.72,0.01-1.09,0.01
			c-0.45,0-0.57,0.22-0.52,0.65c0.29,2.58,2.45,5.17,4.89,5.83c1.75,0.47,3.2-0.08,4.38-1.35c1.21-1.29,1.18-2.78,0.48-4.3
			c-0.27-0.59-0.57-1.17-0.87-1.75c-0.21-0.41-0.37-0.84-0.45-1.29c-0.17-0.96,0.66-1.71,1.6-1.43c0.78,0.23,1.56,0.69,1.7,1.44
			c0.34,1.79,1.5,1.66,2.81,1.51c0.62-0.07,0.8-0.27,0.67-0.87c-0.59-2.67-2.88-4.82-5.6-5.16c-2.06-0.26-4.54,1.67-4.33,3.84
			c0.1,0.99,0.47,1.86,0.88,2.73c0.35,0.74,0.81,1.44,0.87,2.28c0.09,1.17-0.68,1.78-1.79,1.38c-1.07-0.37-1.67-1.19-1.94-2.26
			c-0.31-1.27-0.3-1.27-1.63-1.26C125.28,34.31,125.26,34.31,125.23,34.31z M108.85,26.07c0.75,0.07,1.58-0.12,2.38-0.5
			c0.39-0.19,0.48-0.43,0.25-0.81c-0.33-0.53-0.69-1.05-0.98-1.6c-0.24-0.46-0.5-0.54-0.98-0.32c-2.03,0.92-4.38-0.54-4.88-2.51
			c-0.49-1.92,0.07-3.56,1.36-4.93c1.53-1.62,4.41-1.76,5.6-0.06c0.88,1.26,1.65,1,2.67,0.59c0.02-0.01,0.05-0.01,0.07-0.02
			c1.04-0.32,1.09-0.44,0.52-1.36c-1.45-2.35-4.88-3.75-7.71-3.14c-3.32,0.71-5.78,3.75-5.87,7.25
			C101.19,22.71,104.54,26.06,108.85,26.07z M120.07,16.34c-0.25-0.02-0.34,0.14-0.43,0.27c-0.32,0.45-0.62,0.92-0.96,1.36
			c-0.28,0.36-0.17,0.6,0.17,0.83c0.46,0.3,0.92,0.62,1.38,0.93c1.46,0.98,1.46,0.98,0.5,2.41c-1.66,2.45-3.32,4.91-5.01,7.35
			c-0.32,0.47-0.31,0.75,0.2,1.03c0.36,0.2,0.68,0.45,1.01,0.69c0.91,0.66,0.91,0.66,1.53-0.25c1.76-2.59,3.54-5.17,5.27-7.78
			c0.39-0.59,0.73-0.63,1.27-0.22c0.65,0.5,1.36,0.92,2.02,1.41c0.39,0.29,0.66,0.31,0.92-0.16c0.22-0.4,0.48-0.78,0.76-1.14
			c0.37-0.46,0.23-0.73-0.22-1.03c-2.7-1.81-5.39-3.65-8.08-5.48C120.28,16.48,120.16,16.4,120.07,16.34z M59.15,138.77
			c-0.3-0.07-0.46,0.07-0.54,0.34c-0.15,0.48-0.27,0.98-0.45,1.45c-0.19,0.5-0.04,0.76,0.47,0.9c0.79,0.22,1.56,0.49,2.36,0.69
			c0.58,0.15,0.78,0.37,0.58,1.01c-0.98,3.13-1.91,6.27-2.88,9.4c-0.16,0.52-0.11,0.81,0.47,0.94c0.54,0.12,1.07,0.29,1.59,0.47
			c0.49,0.16,0.74,0.05,0.9-0.48c0.81-2.75,1.63-5.5,2.49-8.23c0.74-2.33,0.27-1.98,2.52-1.36c2.24,0.62,1.8,0.94,2.52-1.35
			c0.16-0.51,0.01-0.74-0.49-0.89c-2.15-0.64-4.29-1.31-6.43-1.96C61.23,139.38,60.19,139.08,59.15,138.77z M77.98,20.42
			c0.26-0.01,0.53-0.01,0.79-0.04c0.92-0.11,1-0.22,0.94-1.14c-0.2-3.22-0.39-6.43-0.61-9.65c-0.03-0.46,0.13-0.57,0.54-0.63
			c0.7-0.1,1.39-0.11,2.09-0.12c1.3-0.03,1.43-0.18,1.25-1.44c-0.03-0.24-0.08-0.48-0.06-0.72c0.03-0.48-0.17-0.63-0.64-0.6
			c-1.13,0.08-2.26,0.11-3.39,0.17c-1.73,0.1-3.46,0.17-5.18,0.34c-0.61,0.06-1.41-0.21-1.79,0.28c-0.38,0.5,0.08,1.25,0,1.9
			c0,0.02,0,0.05,0,0.07c-0.01,0.45,0.23,0.62,0.65,0.54c0.6-0.11,1.2-0.1,1.8-0.11c1.68-0.02,1.66-0.02,1.74,1.72
			c0.13,2.71,0.29,5.43,0.45,8.14C76.64,20.43,76.66,20.43,77.98,20.42z M145.69,71.7c-0.01,2.41,1.7,4.14,4.06,4.13
			c2.24,0,4.05-1.8,4.05-4.04c0-2.25-1.78-4.13-3.96-4.17C147.53,67.58,145.7,69.38,145.69,71.7z M14.07,75.83
			c2.3-0.01,4.1-1.81,4.08-4.08c-0.02-2.32-1.81-4.1-4.15-4.13c-2.09-0.03-4.02,1.96-4.01,4.13C10,74.04,11.8,75.84,14.07,75.83z
			 M72.48,147.84c0.29,0.05,0.45-0.11,0.57-0.35c0.71-1.47,1.43-2.95,2.14-4.42c0.16-0.32,0.08-0.49-0.3-0.53
			c-0.55-0.06-1.1-0.14-1.64-0.24c-0.49-0.09-0.76,0.08-0.94,0.54c-0.39,1.01-0.84,2-1.24,3c-0.74,1.86-0.99,1.66,1.06,1.94
			C72.24,147.79,72.36,147.82,72.48,147.84z"/>
		<path class="st7" d="M98.69,65.48c-4.46-4.98-9.94-6.93-16.47-5.43c-4.38,1-7.73,3.56-10.02,7.4c-2.57,4.3-3.03,8.91-1.39,13.64
			c1.64,4.74,4.93,7.96,9.69,9.69c-0.21,0.33-0.5,0.24-0.74,0.24c-9.96,0-19.92,0-29.88,0c-0.91,0-0.96-0.1-0.51-0.88
			c10.16-17.6,20.31-35.21,30.47-52.81c0.34-0.58,0.68-1.17,1-1.76c0.25-0.46,0.44-0.57,0.76-0.02c2.81,4.89,5.64,9.77,8.47,14.65
			c2.78,4.8,5.55,9.6,8.33,14.4C98.54,64.85,98.73,65.08,98.69,65.48z"/>
		<path class="st7" d="M78.84,75.75c0.01-2.97,1.94-5.76,4.68-6.77c2.94-1.08,6.07-0.31,8.07,2.05c1.17,1.38,2.25,2.82,3.39,4.23
			c0.28,0.35,0.34,0.63,0.03,1.01c-1.08,1.32-2.11,2.69-3.2,4.01c-2.01,2.46-5.22,3.39-8.06,2.37
			C80.78,81.56,78.84,78.83,78.84,75.75z"/>
		<path class="st7" d="M112.41,61.47c1.69,0,3.38,0,5.06,0c0.21,0,0.48-0.09,0.6,0.12c0.14,0.23-0.12,0.39-0.24,0.55
			c-3.43,4.29-6.87,8.58-10.29,12.88c-0.37,0.46-0.61,0.56-1.03,0.04c-1.64-2.05-3.31-4.08-4.99-6.1c-0.33-0.39-0.33-0.66-0.01-1.05
			c1.59-1.97,3.16-3.95,4.73-5.94c0.3-0.38,0.64-0.52,1.12-0.52C109.03,61.49,110.72,61.47,112.41,61.47z"/>
		<path class="st7" d="M89.41,103.97c0-2.19,0.02-4.38-0.01-6.58c-0.01-0.7,0.23-0.94,0.92-0.91c2.11,0.1,4.25-0.19,6.35,0.16
			c3.16,0.53,4.77,3.01,4.09,6.13c-0.39,1.8-1.55,2.82-3.25,3.31c-1.27,0.37-2.58,0.33-3.87,0.29c-0.65-0.02-0.91,0.18-0.88,0.86
			c0.04,1.18-0.01,2.36,0.02,3.54c0.02,0.65-0.25,0.86-0.86,0.82c-0.55-0.03-1.11-0.04-1.66,0c-0.63,0.04-0.91-0.21-0.83-0.83
			c0-0.02,0-0.05,0-0.07C89.41,108.45,89.41,106.21,89.41,103.97z M94.3,99.17c-0.34,0-0.67,0-1.01,0
			c-0.36-0.01-0.53,0.17-0.52,0.53c0,1.18,0,2.36,0,3.53c0,0.27,0.11,0.48,0.41,0.48c1.03,0.01,2.07,0.11,3.08-0.2
			c1.01-0.31,1.44-1.02,1.4-2.23c-0.04-1.07-0.55-1.71-1.57-1.95C95.5,99.18,94.9,99.14,94.3,99.17z"/>
		<path class="st7" d="M115.76,104.45c1.02-1.09,2.03-2.14,3.01-3.22c0.35-0.39,0.73-0.58,1.26-0.55c0.67,0.03,1.35,0,2.02,0.01
			c0.21,0,0.49-0.1,0.6,0.12c0.12,0.24-0.17,0.37-0.31,0.51c-0.98,1.03-1.95,2.07-2.96,3.07c-0.37,0.37-0.37,0.63-0.09,1.04
			c1.23,1.79,2.43,3.59,3.63,5.4c0.12,0.18,0.33,0.36,0.23,0.58c-0.12,0.28-0.42,0.17-0.65,0.18c-0.72,0.01-1.45-0.02-2.17,0.01
			c-0.5,0.02-0.8-0.19-1.05-0.6c-0.72-1.19-1.49-2.37-2.21-3.56c-0.26-0.43-0.47-0.43-0.83-0.09c-0.43,0.41-0.68,0.83-0.63,1.45
			c0.05,0.62-0.02,1.25,0.02,1.88c0.05,0.68-0.18,0.99-0.89,0.93c-0.43-0.04-0.87-0.04-1.3,0c-0.68,0.06-0.94-0.19-0.92-0.9
			c0.04-2.24,0.01-4.48,0.01-6.72c0-2.22,0.02-4.43-0.01-6.65c-0.01-0.63,0.21-0.88,0.84-0.83c0.5,0.04,1.01,0.03,1.52,0
			c0.57-0.03,0.76,0.21,0.75,0.77c-0.02,2.12-0.01,4.24,0,6.36C115.64,103.88,115.57,104.15,115.76,104.45z"/>
		<path class="st7" d="M55,106.98c-1.06,0-2.12-0.01-3.18,0c-0.72,0.01-0.84,0.2-0.57,0.89c0.65,1.69,2.9,2.16,4.09,0.79
			c0.45-0.52,0.91-0.63,1.51-0.55c0.45,0.06,0.91,0.1,1.37,0.1c0.63,0,0.7,0.28,0.45,0.77c-0.86,1.67-2.25,2.62-4.08,2.88
			c-2.63,0.37-4.9-0.79-6.02-3.02c-1.1-2.18-0.63-5.28,1.06-7.01c2.28-2.34,7.27-1.93,8.74,1.71c0.35,0.86,0.53,1.75,0.66,2.66
			c0.08,0.55-0.1,0.81-0.69,0.79C57.22,106.96,56.11,106.98,55,106.98z M53.34,104.76C53.34,104.76,53.34,104.76,53.34,104.76
			c0.63-0.01,1.25,0,1.88-0.01c0.35,0,0.46-0.16,0.34-0.51c-0.29-0.83-1.12-1.36-2.18-1.36c-1.06,0.01-1.8,0.5-2.09,1.35
			c-0.13,0.39-0.01,0.54,0.39,0.53C52.23,104.75,52.79,104.76,53.34,104.76z"/>
		<path class="st7" d="M107.61,110.54c-1.68,1.89-4.8,1.56-6.29,0.15c-1.73-1.64-1.14-4.28,1.18-5.2c1.04-0.41,2.14-0.58,3.23-0.74
			c0.38-0.06,0.77-0.11,1.13-0.24c0.7-0.23,0.83-0.89,0.33-1.42c-0.88-0.92-2.95-0.55-3.42,0.62c-0.11,0.28-0.24,0.48-0.55,0.47
			c-0.63-0.03-1.25-0.07-1.87-0.12c-0.33-0.03-0.36-0.27-0.31-0.53c0.23-1.23,0.8-2.24,2-2.73c1.86-0.76,3.74-0.68,5.55,0.14
			c1.44,0.65,1.95,1.93,1.96,3.43c0.01,1.88,0,3.76,0.01,5.64c0,0.29-0.06,0.62,0.06,0.86c0.4,0.79-0.09,0.74-0.61,0.73
			c-0.41-0.01-0.82-0.03-1.23,0C108.08,111.66,107.59,111.48,107.61,110.54z M107.51,107.27c0.01-0.85-0.03-0.97-0.37-0.87
			c-1.06,0.31-2.19,0.39-3.17,0.94c-0.41,0.23-0.66,0.56-0.62,1.05c0.04,0.48,0.31,0.8,0.73,1
			C105.69,110.15,107.49,109.04,107.51,107.27z"/>
		<path class="st7" d="M80.88,110.67c-1.71,1.51-3.54,1.53-5.41,0.58c-1.12-0.57-1.84-1.51-1.82-2.82c0.02-1.31,0.76-2.21,1.88-2.79
			c1.09-0.57,2.3-0.67,3.49-0.88c0.36-0.06,0.72-0.11,1.06-0.2c0.36-0.09,0.69-0.27,0.75-0.69c0.06-0.4-0.15-0.7-0.45-0.93
			c-1-0.77-2.8-0.33-3.3,0.82c-0.11,0.25-0.22,0.44-0.51,0.42c-0.63-0.03-1.25-0.06-1.87-0.13c-0.38-0.04-0.35-0.35-0.3-0.61
			c0.19-1.11,0.72-2.03,1.74-2.52c2.11-1,4.23-0.86,6.23,0.27c0.98,0.56,1.44,1.53,1.45,2.68c0.01,1.86,0.01,3.71,0.01,5.57
			c0,0.58-0.03,1.16,0.21,1.71c0.15,0.34-0.01,0.44-0.31,0.44c-0.7,0-1.4-0.01-2.1,0C81.03,111.6,81.07,111.1,80.88,110.67z
			 M78.19,109.54c1.91,0.01,2.71-0.85,2.69-2.6c-0.01-0.52-0.13-0.7-0.67-0.51c-0.52,0.18-1.07,0.28-1.6,0.42
			c-0.46,0.12-0.93,0.24-1.34,0.5c-0.42,0.28-0.62,0.65-0.55,1.16c0.07,0.49,0.38,0.77,0.82,0.91
			C77.8,109.51,78.09,109.52,78.19,109.54z"/>
		<path class="st7" d="M42.52,105.41c0-1.74-0.03-3.47,0.01-5.2c0.02-0.68-0.17-0.96-0.89-0.92c-0.96,0.05-1.93,0-2.89,0.02
			c-0.52,0.01-0.74-0.19-0.73-0.72c0.05-2.49-0.32-2.06,1.96-2.08c3.13-0.03,6.27-0.01,9.4-0.01c0.98,0,1,0.02,0.99,0.95
			c-0.02,2.14,0.27,1.82-1.83,1.85c-0.55,0.01-1.11,0-1.66,0c-1.01,0-1.02,0.01-1.02,0.99c0,3.33,0,6.65,0,9.98
			c0,0.22-0.01,0.43,0,0.65c0.01,0.49-0.23,0.69-0.71,0.68c-0.63-0.02-1.25-0.03-1.88,0c-0.57,0.03-0.76-0.22-0.76-0.77
			C42.53,109.02,42.52,107.21,42.52,105.41z"/>
		<path class="st7" d="M113.51,90.94c-7.2,0-14.34,0-21.49,0c0.03-0.26,0.18-0.3,0.31-0.34c2.7-0.91,4.75-2.7,6.52-4.85
			c0.64-0.78,1.29-1.56,1.91-2.36c0.3-0.39,0.49-0.4,0.83-0.01c1.62,1.86,3.34,3.6,5.42,4.96c1.76,1.15,3.66,1.93,5.75,2.24
			C113.01,90.6,113.29,90.58,113.51,90.94z"/>
		<path class="st7" d="M60.6,106.21c0-0.87-0.01-1.74,0-2.6c0.01-0.47-0.13-0.76-0.65-0.7c-0.64,0.06-0.89-0.23-0.82-0.85
			c0.02-0.19,0.02-0.39,0-0.58c-0.05-0.54,0.16-0.84,0.74-0.78c0.59,0.06,0.76-0.23,0.73-0.77c-0.03-0.67,0.01-1.35-0.01-2.02
			c-0.01-0.47,0.2-0.67,0.65-0.65c0.65,0.03,1.3,0.07,1.95,0.1c0.39,0.02,0.48,0.27,0.48,0.59c0,0.67,0.02,1.35,0,2.02
			c-0.02,0.51,0.15,0.73,0.7,0.74c1.3,0.02,1.58,0.42,1.29,1.72c-0.06,0.27-0.19,0.44-0.47,0.45c-0.26,0.01-0.53,0.03-0.79,0.02
			c-0.52-0.04-0.73,0.18-0.73,0.71c0.02,1.49,0,2.99,0.01,4.48c0.01,0.84,0.28,1.14,1.14,1.13c0.71-0.02,0.91,0.25,0.9,0.93
			c-0.03,1.43,0,1.44-1.47,1.44c-2.85,0.01-3.66-0.79-3.66-3.64C60.6,107.37,60.6,106.79,60.6,106.21z"/>
		<path class="st7" d="M70.45,101.84c0.52-0.61,1.02-1.19,1.83-1.36c1.17-0.25,1.5-0.01,1.51,1.16c0,0.27-0.01,0.53,0,0.79
			c0.03,0.54-0.2,0.75-0.77,0.78c-1.47,0.06-2.37,0.98-2.54,2.45c-0.19,1.66-0.12,3.32-0.1,4.98c0.01,0.7-0.18,0.98-0.93,0.97
			c-2.18-0.02-2.18,0.01-2.18-2.18c0-2.53,0-5.06,0-7.59c0-1.14,0-1.14,1.17-1.14c0.19,0,0.39,0,0.58,0
			C70.42,100.73,70.13,100.61,70.45,101.84z"/>
		<path class="st7" d="M128.22,91.01c2.68,0.01,4.93,2.29,4.91,4.96c-0.03,2.64-2.31,4.88-4.95,4.85c-2.65-0.03-4.86-2.26-4.88-4.93
			C123.29,93.29,125.59,91,128.22,91.01z M132.1,95.93c0.01-2.22-1.65-3.89-3.87-3.89c-2.22,0-3.9,1.67-3.91,3.87
			c-0.01,2.16,1.74,3.92,3.89,3.92C130.41,99.83,132.09,98.14,132.1,95.93z"/>
		<path class="st7" d="M118.69,143.7c-2.39,0-4.53-2.27-4.53-4.8c0-2.28,2.11-4.31,4.47-4.32c2.36-0.01,4.51,2.29,4.51,4.84
			C123.14,141.77,121.14,143.7,118.69,143.7z"/>
		<path class="st7" d="M132,123.28c2.45,0.01,4.71,2.24,4.74,4.63c0.02,2.08-2.16,4.49-4.42,4.39c-2.49-0.11-4.7-2.21-4.7-4.66
			C127.61,125.28,129.63,123.27,132,123.28z"/>
		<path class="st7" d="M57.44,15.99c0-2.49,1.9-4.32,4.52-4.36c2.36-0.04,4.33,2.18,4.31,4.87c-0.02,2.53-1.79,4.18-4.48,4.31
			C59.4,20.91,57.44,18.65,57.44,15.99z"/>
		<path class="st7" d="M141.69,109.97c2.95,0.01,4.81,2.41,4.11,5.18c-0.26,1.02-0.78,1.91-1.26,2.82
			c-0.15,0.27-0.33,0.31-0.59,0.17c-2.19-1.17-4.37-2.33-6.56-3.49c-0.25-0.13-0.36-0.31-0.23-0.59c0.64-1.33,1.28-2.65,2.57-3.5
			C140.35,110.14,141.02,109.92,141.69,109.97z"/>
		<path class="st7" d="M46.71,20.63c-0.01,0.36-0.19,0.63-0.41,0.9c-0.67,0.78-1.61,1.21-2.45,1.76c-0.25,0.16-0.45,0.09-0.6-0.16
			c-0.4-0.66-0.81-1.31-1.21-1.96c-0.12-0.2-0.19-0.42,0.06-0.57c0.83-0.48,1.56-1.14,2.51-1.4C45.69,18.88,46.71,19.59,46.71,20.63
			z"/>
		<path class="st7" d="M51.65,140.41c-0.11,1.12-0.21,2.15-0.31,3.18c-0.05,0.46-0.22,0.67-0.7,0.39c-0.61-0.34-1.23-0.67-1.85-0.98
			c-0.41-0.21-0.47-0.44-0.11-0.75c0.83-0.73,1.66-1.46,2.49-2.19c0.11-0.09,0.24-0.22,0.38-0.1
			C51.72,140.1,51.63,140.32,51.65,140.41z"/>
		<path class="st7" d="M32.84,28.43c0.96-0.01,1.79,1.09,1.51,1.98c-0.35,1.09-1.3,1.7-2.06,2.45c-0.2,0.2-0.4,0-0.56-0.15
			c-0.54-0.54-1.08-1.09-1.62-1.64c-0.18-0.18-0.34-0.38-0.11-0.62c0.73-0.76,1.42-1.58,2.47-1.92
			C32.61,28.48,32.76,28.45,32.84,28.43z"/>
		<path class="st7" d="M126.3,95.87c0-0.7,0.02-1.4-0.01-2.09c-0.02-0.51,0.18-0.77,0.71-0.74c0.74,0.04,1.49-0.07,2.23,0.12
			c0.74,0.19,1.17,0.64,1.26,1.39c0.08,0.71-0.14,1.31-0.8,1.63c-0.38,0.19-0.37,0.37-0.17,0.66c0.23,0.34,0.45,0.68,0.64,1.04
			c0.12,0.23,0.48,0.52,0.16,0.73c-0.31,0.21-0.76,0.19-1.02-0.2c-0.31-0.46-0.58-0.94-0.87-1.41c-0.16-0.26-0.28-0.64-0.67-0.54
			c-0.42,0.11-0.25,0.51-0.28,0.8c-0.03,0.29-0.01,0.58-0.01,0.87c0,0.37-0.16,0.58-0.56,0.58c-0.43,0-0.61-0.19-0.61-0.61
			C126.31,97.36,126.3,96.62,126.3,95.87C126.3,95.87,126.3,95.87,126.3,95.87z M128.1,94.06c-0.29-0.03-0.64,0.06-0.63,0.69
			c0.01,0.5,0.13,0.76,0.69,0.74c0.75-0.03,1.2-0.28,1.16-0.78C129.27,94.06,128.76,94.1,128.1,94.06z"/>
	</g>
</g>
<g id="Header">
</g>
<g id="Names">
</g>
<g id="Layer_13">
</g>
<g id="Layer_14">
</g>
</svg>
