<?xml version="1.0" encoding="utf-8"?>
<!-- Generator: Adobe Illustrator 23.0.2, SVG Export Plug-In . SVG Version: 6.00 Build 0)  -->
<svg version="1.1" xmlns="http://www.w3.org/2000/svg" xmlns:xlink="http://www.w3.org/1999/xlink" x="0px" y="0px"
	 viewBox="0 0 138.95 159.32" style="enable-background:new 0 0 138.95 159.32;" xml:space="preserve">
<style type="text/css">
	.st0{fill:#0078D4;}
	.st1{fill:#50E6FF;}
	.st2{fill:none;stroke:#757575;stroke-miterlimit:10;}
	.st3{fill:none;stroke:#0078D4;stroke-width:2.88;stroke-miterlimit:10;}
	.st4{fill:#0078D4;stroke:#EBEBEB;stroke-miterlimit:10;}
	.st5{fill:#FFFFFF;stroke:#EBEBEB;stroke-miterlimit:10;}
	.st6{fill:#E6E7E8;stroke:#939598;stroke-miterlimit:10;}
	.st7{fill:none;}
	.st8{font-family:'SegoeUI-Bold';}
	.st9{font-size:14px;}
	.st10{fill:#FFFFFF;}
	.st11{fill:none;stroke:#FFFFFF;stroke-width:2.88;stroke-miterlimit:10;}
	.st12{fill-rule:evenodd;clip-rule:evenodd;fill:#0078D4;}
	.st13{clip-path:url(#SVGID_2_);fill:none;stroke:#212121;stroke-miterlimit:10;}
	.st14{clip-path:url(#SVGID_2_);fill:#BCBCBC;}
	.st15{clip-path:url(#SVGID_2_);fill:#5E5E5E;}
	.st16{clip-path:url(#SVGID_2_);fill:#0078D4;}
	.st17{clip-path:url(#SVGID_2_);fill:#50E6FF;}
	.st18{clip-path:url(#SVGID_2_);}
	.st19{fill:#6D6E71;}
	.st20{fill:#3C3C3C;}
	.st21{opacity:0.8;fill:#FFFFFF;}
	.st22{fill:#333132;}
	.st23{fill:none;stroke:#333132;stroke-miterlimit:10;}
	.st24{fill:#0078D4;stroke:#000000;stroke-miterlimit:10;}
	.st25{fill:#EBEBEB;}
	.st26{fill:none;stroke:#5E5E5E;stroke-miterlimit:10;}
	.st27{fill:none;stroke:#50E6FF;stroke-miterlimit:10;}
	.st28{clip-path:url(#SVGID_4_);}
	.st29{fill:none;stroke:#212121;stroke-miterlimit:10;}
	.st30{fill:#BCBCBC;}
	.st31{fill:#5E5E5E;}
	.st32{clip-path:url(#SVGID_6_);}
	.st33{clip-path:url(#SVGID_8_);}
	.st34{fill:#EF5125;}
	.st35{fill:#80BA42;}
	.st36{fill:#787878;}
	.st37{fill:#757575;}
	.st38{fill:#349FD9;}
	.st39{fill:#FCB713;}
</style>
<g id="Guidelines">
	<g>
		<g>
			<g>
				<g>
					<polygon class="st4" points="111.71,130.98 69.48,69.76 27.24,130.98 					"/>
					<polygon class="st4" points="27.24,130.98 69.48,69.76 1.13,50.64 					"/>
					<polygon class="st4" points="111.71,130.98 69.48,69.76 137.82,50.64 					"/>
					<polygon class="st4" points="69.48,0.98 69.48,69.76 137.82,50.64 					"/>
					<polygon class="st5" points="69.48,0.98 69.48,69.76 1.13,50.64 					"/>
				</g>
			</g>
		</g>
		<g>
			<g>
				<rect x="45.07" y="142.93" class="st7" width="48.81" height="11.29"/>
				<text transform="matrix(1 0 0 1 48.4579 153.2912)" class="st0 st8 st9">MENU</text>
			</g>
		</g>
		<g>
			<g>
				<g>
					<path class="st10" d="M99.44,77.05h9.62v7.75h-9.62V77.05z M96.53,74.15v13.57h4.76v1.84h5.91v-1.84h4.76V74.15H96.53z"/>
					<rect x="101.29" y="82.91" class="st1" width="5.91" height="3.31"/>
				</g>
				<g>
					<path class="st10" d="M34.48,76.25c0,0.1,0,0.19-0.01,0.28c0.15-0.01,0.31-0.02,0.47-0.02c2.15,0,4,1.27,4.85,3.1
						c0.51-0.43,1.17-0.69,1.89-0.69c0.23,0,0.46,0.03,0.68,0.08c-1.15-2.98-4.03-5.1-7.42-5.1c-0.5,0-0.99,0.05-1.46,0.14
						C34.09,74.58,34.48,75.37,34.48,76.25"/>
					<path class="st10" d="M41.68,84.78c-0.72,0-1.38-0.26-1.89-0.69c-0.85,1.83-2.7,3.1-4.85,3.1c-0.13,0-0.26-0.01-0.38-0.02
						c0.04,0.18,0.06,0.37,0.06,0.57c0,0.76-0.29,1.46-0.77,1.98c0.36,0.05,0.72,0.08,1.1,0.08c3.38,0,6.27-2.12,7.42-5.1
						C42.14,84.75,41.91,84.78,41.68,84.78"/>
					<path class="st10" d="M30.63,85.01c-0.65-0.88-1.03-1.98-1.03-3.16c0-1.06,0.31-2.06,0.85-2.89c-0.87-0.35-1.52-1.11-1.74-2.03
						c-1.07,1.35-1.71,3.06-1.71,4.92c0,1.95,0.7,3.73,1.86,5.11C29.1,86.06,29.77,85.34,30.63,85.01"/>
					<path class="st1" d="M33.56,76.29c0,1.1-0.89,1.99-1.99,1.99s-1.99-0.89-1.99-1.99s0.89-1.99,1.99-1.99
						S33.56,75.19,33.56,76.29"/>
					<path class="st1" d="M43.59,81.85c0,1.1-0.89,1.99-1.99,1.99s-1.99-0.89-1.99-1.99s0.89-1.99,1.99-1.99
						S43.59,80.75,43.59,81.85"/>
					<path class="st1" d="M33.68,87.74c0,1.1-0.89,1.99-1.99,1.99s-1.99-0.89-1.99-1.99s0.89-1.99,1.99-1.99
						S33.68,86.64,33.68,87.74"/>
				</g>
			</g>
			<g>
				<g>
					<path class="st10" d="M77.74,106.81c0,1.06-0.86,1.93-1.93,1.93s-1.93-0.86-1.93-1.93c0-1.06,0.86-1.93,1.93-1.93
						S77.74,105.74,77.74,106.81"/>
					<path class="st10" d="M70.39,106.81c0,0.67-0.54,1.22-1.22,1.22s-1.22-0.54-1.22-1.22c0-0.67,0.54-1.22,1.22-1.22
						S70.39,106.13,70.39,106.81"/>
					<path class="st1" d="M75.87,109.73c-0.72,0-1.38-0.26-1.89-0.69c-0.85,1.83-2.69,3.1-4.84,3.1c-2.94,0-5.33-2.39-5.33-5.33
						c0-2.94,2.39-5.33,5.33-5.33c2.15,0,4,1.27,4.84,3.1c0.51-0.43,1.17-0.69,1.89-0.69c0.23,0,0.46,0.03,0.67,0.08
						c-1.14-2.97-4.03-5.09-7.4-5.09c-4.38,0-7.93,3.55-7.93,7.93c0,4.38,3.55,7.93,7.93,7.93c3.38,0,6.26-2.11,7.4-5.09
						C76.33,109.7,76.1,109.73,75.87,109.73"/>
				</g>
				<g>
					<rect x="69.17" y="106.3" class="st10" width="6.75" height="1"/>
				</g>
			</g>
			<g>
				<g>
					<polygon class="st0" points="54.84,34.05 54.84,34.7 55.49,34.7 55.49,35.34 56.14,35.34 56.14,34.05 					"/>
					<polygon class="st0" points="52.12,34.05 52.12,35.34 52.76,35.34 52.76,34.7 53.41,34.7 53.41,34.05 					"/>
					<polygon class="st0" points="53.41,38.07 52.12,38.07 52.12,36.77 52.76,36.77 52.76,37.42 53.41,37.42 					"/>
					<polygon class="st0" points="55.49,36.77 55.49,37.42 54.84,37.42 54.84,38.07 56.14,38.07 56.14,36.77 					"/>
					<polygon class="st1" points="40.76,34.07 40.76,49.46 56.15,49.46 56.15,40.34 53.25,40.34 53.25,46.56 43.66,46.56 
						43.66,36.97 49.88,36.97 49.88,34.07 					"/>
					<polygon class="st0" points="49.88,36.97 47.08,36.97 47.08,43.14 53.25,43.14 53.25,40.34 49.88,40.34 					"/>
				</g>
				<g>
					<polygon class="st1" points="95.78,45.03 95.78,36.34 87.09,36.34 87.09,39.11 91.05,39.11 87.09,43.07 89.05,45.03 
						93.01,41.08 93.01,45.03 					"/>
					<polygon class="st10" points="82.91,34.17 82.91,49.46 98.19,49.46 98.19,46.59 85.79,46.59 85.79,46.58 85.79,46.58 
						85.79,37.05 85.79,37.05 85.79,34.17 					"/>
				</g>
			</g>
		</g>
	</g>
</g>
<g id="Guides">
</g>
<g id="Layer_8">
</g>
<g id="Download_Blade">
</g>
<g id="Middle_Section">
</g>
<g id="Blade_1">
</g>
<g id="Hero">
</g>
<g id="Colors">
</g>
<g id="Nav_Bars">
</g>
<g id="Footers">
</g>
<g id="Header">
</g>
<g id="Names">
</g>
<g id="Layer_13">
</g>
<g id="Layer_14">
</g>
</svg>
